<?xml version="1.0" standalone="no"?>
<!DOCTYPE svg PUBLIC "-//W3C//DTD SVG 20010904//EN"
 "http://www.w3.org/TR/2001/REC-SVG-20010904/DTD/svg10.dtd">
<svg version="1.0" xmlns="http://www.w3.org/2000/svg"
 width="48.000000pt" height="48.000000pt" viewBox="0 0 48.000000 48.000000"
 preserveAspectRatio="xMidYMid meet">

<g transform="translate(0.000000,48.000000) scale(0.100000,-0.100000)"
fill="#000000" stroke="none">
<path d="M86 288 c-20 -23 -36 -45 -36 -49 0 -3 18 -26 39 -50 32 -35 42 -42
52 -32 11 11 6 20 -21 48 l-34 35 33 34 c30 31 35 56 11 56 -5 0 -25 -19 -44
-42z"/>
<path d="M344 319 c-3 -6 9 -26 27 -45 l33 -34 -34 -35 c-27 -28 -32 -37 -21
-48 10 -10 20 -3 52 32 21 24 39 47 39 50 0 11 -71 91 -80 91 -5 0 -12 -5 -16
-11z"/>
</g>
</svg>
